<?xml version="1.0" encoding="UTF-8" standalone="no"?>
<!-- Created with Inkscape (http://www.inkscape.org/) -->

<svg
   width="1001.1757"
   height="1011.5057"
   viewBox="0 0 264.89436 267.62753"
   version="1.1"
   id="svg1"
   xml:space="preserve"
   inkscape:export-filename="icon-#e6e6e6.png"
   inkscape:export-xdpi="96"
   inkscape:export-ydpi="96"
   inkscape:version="1.4 (86a8ad7, 2024-10-11)"
   sodipodi:docname="svgEditavel.svg"
   xmlns:inkscape="http://www.inkscape.org/namespaces/inkscape"
   xmlns:sodipodi="http://sodipodi.sourceforge.net/DTD/sodipodi-0.dtd"
   xmlns="http://www.w3.org/2000/svg"
   xmlns:svg="http://www.w3.org/2000/svg"><sodipodi:namedview
     id="namedview1"
     pagecolor="#ffffff"
     bordercolor="#000000"
     borderopacity="0.25"
     inkscape:showpageshadow="2"
     inkscape:pageopacity="0.0"
     inkscape:pagecheckerboard="0"
     inkscape:deskcolor="#d1d1d1"
     inkscape:document-units="mm"
     showguides="true"
     inkscape:zoom="0.70710678"
     inkscape:cx="289.91378"
     inkscape:cy="434.87067"
     inkscape:window-width="2400"
     inkscape:window-height="1261"
     inkscape:window-x="-9"
     inkscape:window-y="-9"
     inkscape:window-maximized="1"
     inkscape:current-layer="layer1"><sodipodi:guide
       position="-94.161325,182.19704"
       orientation="1,0"
       id="guide3"
       inkscape:locked="false" /></sodipodi:namedview><defs
     id="defs1" /><g
     inkscape:label="Layer 1"
     inkscape:groupmode="layer"
     id="layer1"
     transform="translate(-0.99118326,-0.05585477)"><path
       style="fill:#e6e6e6;fill-opacity:1;stroke:none;stroke-width:1.34248"
       d="m 30.983153,55.199842 v 0.358617 l 45.998609,46.261691 11.410502,11.47577 6.061839,5.67369 7.488147,1.14006 c -3.192364,5.76683 -6.27656,10.7599 -6.743072,17.57227 -1.32512,19.35081 14.588902,35.36397 33.843042,34.03661 6.70853,-0.46251 11.7745,-3.59131 17.4723,-6.78165 l 1.13331,7.53098 5.64169,6.0965 11.4105,11.47577 45.99862,46.26169 h 0.35658 l 39.93678,-40.16518 10.69734,-10.75855 c 1.20259,-1.20944 3.72921,-2.94143 4.15569,-4.66201 0.41263,-1.66465 -2.43544,-3.64918 -3.44253,-4.66205 l -12.12367,-12.193 -31.02232,-31.19976 -10.69734,-10.75854 c -1.63179,-1.64111 -3.30278,-3.90576 -5.34867,-5.0248 -2.19265,-1.1993 -5.11067,-0.86077 -7.48816,-1.43031 3.34086,-6.78282 6.53632,-12.23304 6.72905,-20.082607 0.41324,-16.829642 -13.7531,-30.413737 -29.90664,-31.526277 -8.66212,-0.596583 -14.20769,3.906035 -21.75127,6.781651 -0.006,-2.127238 0.10936,-5.238284 -0.82653,-7.172352 -2.24926,-4.647968 -8.38741,-8.90804 -12.0103,-12.551634 L 102.65541,15.393262 90.888319,3.5588717 C 89.881193,2.5459909 87.907977,-0.31833314 86.252795,0.09664705 84.542023,0.52557016 82.819852,3.0666695 81.617286,4.2761069 L 70.919936,15.034643 30.983153,55.199842 m 24.247333,0.717233 c 0.89021,-3.189649 4.486871,-5.300857 6.742798,-7.530974 5.715897,-5.650464 11.181476,-11.538065 16.910783,-17.171871 1.757935,-1.728649 5.137288,-6.986131 7.725304,-6.986131 1.412181,0 2.66729,1.739156 3.565797,2.640932 l 7.844719,7.889593 26.030223,26.179105 c 2.79003,2.805967 8.7516,6.862762 9.82984,10.758527 0.92371,3.337534 2.55461,11.445567 1.3655,14.703332 -1.07376,2.941773 -5.1026,5.706795 -7.27297,7.889597 -2.97416,2.991162 -6.52989,8.203645 -10.34079,10.026085 -1.30617,0.62464 -3.25891,0.054 -4.63552,-0.13671 -3.33859,-0.46244 -7.08438,-0.38653 -10.30748,-1.41871 -1.99147,-0.63775 -3.596647,-3.088501 -5.025379,-4.525878 L 86.609371,87.116834 66.284412,66.675615 C 62.747868,63.118852 59.321044,58.815001 55.230486,55.917075 M 211.41178,211.91584 c -2.47382,-0.71306 -4.61006,-3.71206 -6.38209,-5.56217 -4.18839,-4.37294 -8.45098,-8.70357 -12.83296,-12.87954 -5.88891,-5.61204 -11.4176,-11.64892 -17.15593,-17.42008 -3.34822,-3.36736 -8.74442,-6.93426 -11.00937,-11.17941 -1.06535,-1.99677 -0.90649,-4.89989 -1.1696,-7.1101 -0.27898,-2.34356 -1.44975,-5.96219 -0.76736,-8.24822 1.05863,-3.54643 6.80618,-7.45219 9.38054,-10.04128 2.41402,-2.42782 5.13015,-6.33549 8.2013,-7.87965 1.3148,-0.66106 2.89725,-0.28272 4.27896,-0.1121 3.35952,0.41497 8.8579,-0.005 11.76707,1.80278 3.9545,2.4581 7.15156,7.06406 10.4423,10.34017 7.75941,7.72486 15.87988,15.31762 23.26701,23.40008 2.99742,3.27956 6.22982,6.35958 9.44163,9.4198 0.89737,0.85501 3.0677,2.49574 2.99158,3.91131 -0.13529,2.51644 -6.2453,6.85354 -7.98863,8.60684 -7.26074,7.30226 -16.56472,14.52829 -22.46445,22.95154 M 1.0305686,140.9095 c 0,7.20567 -0.32073152,14.38864 0.8683284,21.51709 7.522913,45.09978 39.932661,82.76492 82.571007,98.01305 9.557184,3.41779 19.842986,5.63125 29.952586,6.37655 2.94177,0.21686 7.4554,1.41172 10.28796,0.57141 1.52092,-0.45123 1.12247,-2.5999 1.12255,-3.83081 v -9.32405 c 0,-1.04369 0.32511,-2.8502 -0.36648,-3.72841 -1.23213,-1.56458 -6.69427,-0.45847 -8.54798,-0.63588 -8.08837,-0.77411 -16.15759,-2.30639 -23.890753,-4.84134 -21.20576,-6.95129 -40.218877,-20.11869 -53.673852,-38.13193 -9.778089,-13.0907 -16.289618,-27.80373 -19.822564,-43.75136 -1.095155,-4.9435 -2.036849,-10.35012 -2.096817,-15.42056 -0.01705,-1.44517 0.49669,-5.40108 -0.654284,-6.44518 -0.888962,-0.80641 -3.231467,-0.36858 -4.3392,-0.36858 H 1.0305686 M 125.833,210.83998 c -25.77922,0 -50.334717,-15.16019 -61.956323,-38.3721 -3.547271,-7.085 -5.979801,-14.70691 -6.91861,-22.59293 -0.205278,-1.72435 0.160708,-7.93495 -1.484364,-8.74905 -1.670365,-0.82662 -4.825619,-0.2164 -6.661633,-0.2164 -2.084305,0 -7.384717,-0.96272 -9.055875,0.36858 -1.33535,1.06377 -0.24809,5.6001 -0.209937,7.16241 0.192337,7.87526 2.619672,15.95533 5.233665,23.31016 8.015911,22.55375 26.387216,40.7992 48.247864,49.84399 7.724643,3.19606 16.264383,5.39553 24.603903,6.06967 1.71066,0.13819 6.59469,1.38908 7.83483,-0.18567 0.78548,-0.99744 0.36648,-3.25212 0.36648,-4.44565 z"
       id="path3" /></g></svg>
